<?xml version="1.0" encoding="UTF-8" standalone="no"?>
<!-- Created with Inkscape (http://www.inkscape.org/) -->

<svg
   xmlns:dc="http://purl.org/dc/elements/1.1/"
   xmlns:cc="http://creativecommons.org/ns#"
   xmlns:rdf="http://www.w3.org/1999/02/22-rdf-syntax-ns#"
   xmlns:svg="http://www.w3.org/2000/svg"
   xmlns="http://www.w3.org/2000/svg"
   xmlns:sodipodi="http://sodipodi.sourceforge.net/DTD/sodipodi-0.dtd"
   xmlns:inkscape="http://www.inkscape.org/namespaces/inkscape"
   width="210mm"
   height="297mm"
   viewBox="0 0 210 297"
   version="1.1"
   id="svg38"
   inkscape:version="0.92.2 (5c3e80d, 2017-08-06)"
   sodipodi:docname="LogoJim.svg">
  <defs
     id="defs32" />
  <sodipodi:namedview
     id="base"
     pagecolor="#ffffff"
     bordercolor="#666666"
     borderopacity="1.0"
     inkscape:pageopacity="0.0"
     inkscape:pageshadow="2"
     inkscape:zoom="0.47749719"
     inkscape:cx="396.85039"
     inkscape:cy="561.25984"
     inkscape:document-units="mm"
     inkscape:current-layer="layer1"
     showgrid="false"
     inkscape:window-width="1366"
     inkscape:window-height="705"
     inkscape:window-x="-8"
     inkscape:window-y="-8"
     inkscape:window-maximized="1" />
  <metadata
     id="metadata35">
    <rdf:RDF>
      <cc:Work
         rdf:about="">
        <dc:format>image/svg+xml</dc:format>
        <dc:type
           rdf:resource="http://purl.org/dc/dcmitype/StillImage" />
        <dc:title></dc:title>
      </cc:Work>
    </rdf:RDF>
  </metadata>
  <g
     inkscape:label="Capa 1"
     inkscape:groupmode="layer"
     id="layer1">
    <path
       style="fill:#ff0000;stroke-width:0.26458332"
       id="path54"
       d="m 72.124172,49.855442 c -3.329395,5.320017 -6.410071,10.797564 -9.524301,16.246441 -3.766815,6.941888 -6.281174,14.428049 -8.344802,22.021328 -1.045131,3.706609 -1.806536,7.481684 -2.620844,11.242694 -0.659524,3.338115 -1.223592,6.694445 -1.937046,10.021815 -0.516064,3.3051 -0.06141,1.96292 -7.363814,3.95057 -0.625359,0.17022 0.849106,-0.97953 1.262599,-1.4786 1.268614,-1.53117 2.524054,-3.0732 3.783536,-4.61188 7.04328,-8.604615 4.445037,-5.41451 11.741052,-14.493761 7.535143,-9.339908 16.179221,-17.749829 26.148604,-24.46583 4.832363,-3.255383 11.95991,-6.961902 16.610374,-9.528497 1.9134,-0.719524 8.94306,-4.950402 10.87005,-2.050238 1.16286,1.750121 0.26499,3.648263 -0.10715,5.421614 -0.8101,1.484799 -1.50783,3.036673 -2.4303,4.454403 -2.44801,3.762341 -6.54541,8.539062 -9.42332,11.757784 -2.446372,2.736086 -4.954103,5.417378 -7.485753,8.074758 -6.373368,6.6899 -12.213659,12.445632 -18.760762,18.990877 -8.738955,8.55149 -17.24796,17.33169 -25.819547,26.0492 -3.779364,3.8437 -7.574931,7.73322 -11.525607,11.40773 -1.375794,1.27962 -2.810621,2.49426 -4.215932,3.7414 -4.357695,3.65153 -8.740337,6.53485 -14.222418,8.57347 -1.206878,0.4488 -1.279931,-1.68465 -0.953859,-2.70431 0.288237,-0.90135 0.887155,-1.67182 1.330732,-2.50773 2.932366,-4.42939 6.683089,-8.41912 11.470698,-10.86034 10.239377,-5.22109 6.536449,-4.75789 13.350438,-4.71554 0.982599,0.41388 2.08633,0.61341 2.947797,1.24163 3.416634,2.49158 4.626163,7.63732 5.699644,11.43016 0.882271,3.11726 1.618932,6.27391 2.430774,9.41025 0.983883,3.17244 1.789475,6.52747 3.528068,9.40742 0.491604,0.81433 1.48217,2.34608 2.708394,2.37999 0.591336,0.0164 1.106538,-0.41875 1.659806,-0.62813 -1.433002,0.68118 -2.970157,2.91051 -4.299009,2.04353 -1.161957,-0.75809 2.039239,-1.88557 2.9844,-2.90122 1.095933,-1.17765 2.126043,-2.41638 3.13227,-3.67155 2.92853,-3.65305 5.481939,-7.53669 7.962058,-11.49883 1.463556,-2.31763 2.801154,-4.70709 4.077171,-7.13118 0,0 7.205861,-3.2305 7.205861,-3.2305 v 0 c -1.398244,2.49675 -2.861778,4.95413 -4.435515,7.34573 -2.535999,3.97566 -5.130884,7.89419 -8.017697,11.62876 -0.643909,0.833 -4.61645,5.82129 -5.729859,6.6173 -2.922421,2.08931 -6.137839,3.73498 -9.206759,5.60247 -0.673921,0.054 -1.365219,0.32347 -2.021758,0.16209 -1.281161,-0.31491 -2.2605,-1.88019 -2.800163,-2.8835 -1.624118,-3.01947 -2.297054,-6.47079 -3.257086,-9.72131 -1.133031,-4.66329 -2.082118,-9.50161 -3.88252,-13.96926 -0.94017,-2.333 -1.964857,-4.6405 -4.146389,-6.0967 -0.810873,-0.54127 -1.827985,-0.67855 -2.741977,-1.01782 -9.142831,0.31714 1.883502,0.59621 -0.11724,-2.51209 -0.721069,-1.12024 -2.376331,1.22231 -3.470272,1.98268 -3.191962,2.21865 -5.826487,5.15102 -7.921239,8.4014 -0.412629,0.7266 -0.854504,1.43736 -1.237885,2.17981 -0.177595,0.34393 -0.458949,0.68704 -0.442161,1.07375 0.0084,0.19273 0.651787,0.16841 0.501326,0.28915 -1.564682,1.25554 -3.403996,2.13221 -5.01267,3.33087 -2.039463,1.51966 10.407182,-6.49328 6.269898,-4.34824 1.506024,-1.27726 3.044933,-2.51672 4.518069,-3.83177 4.14985,-3.70452 8.234926,-7.74555 12.173741,-11.65181 8.795642,-8.72294 17.465249,-17.57302 26.304089,-26.25269 8.628505,-8.694642 17.283771,-17.350415 25.308713,-26.615681 2.668252,-3.080652 6.57577,-7.775019 8.86646,-11.359081 0.83817,-1.311405 1.47045,-2.743533 2.20568,-4.115303 0.21847,-0.969735 1.11838,-3.210623 0.32742,-4.4148 -0.63756,-0.970645 -2.41132,-0.58733 -3.14212,-0.413086 -2.16012,0.515035 -4.705191,1.775767 -6.655335,2.635977 2.486372,-2.054529 3.790825,-3.029196 -4.666797,2.509843 -7.407246,4.851128 -14.096823,10.592194 -20.142552,17.058214 -2.222145,2.376622 -4.265837,4.914032 -6.398754,7.371048 -3.795824,4.826789 -7.344294,9.275252 -11.015049,14.172819 -1.061876,1.41677 -2.09968,2.85191 -3.1124,4.30422 -0.336714,0.48287 -0.425989,1.20153 -0.934111,1.49877 -2.447446,1.43173 -5.050814,2.61736 -7.723034,3.56555 -0.298204,0.10581 0.168635,-0.60995 0.252952,-0.91493 0.808628,-3.29872 1.335739,-6.64935 1.891136,-9.99747 0.910836,-3.832137 1.7882,-7.673186 2.945186,-11.442279 2.21634,-7.624535 4.694086,-15.199772 8.404354,-22.252233 3.011236,-5.31023 6.04438,-10.607897 8.899218,-16.0045 0,0 7.493238,-3.304826 7.493238,-3.304826 z"
       inkscape:connector-curvature="0" />
    <path
       style="fill:#ff0000;stroke-width:0.26458332"
       id="path66"
       d="m 153.53689,55.386059 c -5.02917,5.564143 -9.97565,11.193775 -14.73565,16.990595 -1.33345,1.699873 -2.68063,3.388939 -4.015,5.088082 -0.15798,0.201166 -1.6361,1.874237 -1.77173,2.585752 -0.0243,0.127289 0.20342,-0.167582 0.32421,-0.214498 0.42081,-0.163451 0.85997,-0.274986 1.28996,-0.41248 6.73038,-2.294696 13.5436,-4.252949 20.47494,-5.836393 3.11065,-0.663832 6.24427,-1.218618 9.39263,-1.670159 0.54074,-0.07755 2.87199,-0.450143 3.62508,-0.31551 0.33333,0.05959 0.60111,0.311925 0.90166,0.467887 0.0768,0.366418 0.32648,0.73742 0.23037,1.099253 -0.332,1.249964 -1.98858,2.092095 -2.85072,2.679843 -1.35421,0.923206 -2.71389,1.838518 -4.0826,2.740073 -6.14315,4.046416 -7.23109,4.676926 -13.92084,8.887576 -7.23944,4.598572 -14.42189,9.28655 -21.60207,13.97691 -1.63029,1.06497 -3.25185,2.14324 -4.87897,3.21305 -1.23445,0.81163 -2.50453,1.57119 -3.70573,2.43126 -0.7191,0.51488 -1.36479,1.12525 -2.04719,1.68788 -0.0518,0.29958 -0.38874,0.70381 -0.15543,0.89875 0.3911,0.32679 1.0021,0.20571 1.51098,0.2339 1.56563,0.0867 3.13481,0.1223 4.7028,0.11032 6.77639,-0.0518 13.55188,-0.57482 20.31121,-1.00332 5.56374,-0.1385 14.56336,-1.75487 19.30066,2.13615 2.65686,2.18224 2.56636,3.78534 3.46155,6.93253 -0.10901,1.56167 0.0805,3.1735 -0.32702,4.68501 -1.17379,4.35394 -3.99165,8.02717 -7.00882,11.24433 -9.0461,9.64574 -18.4154,13.24446 -30.22974,19.11119 -8.98122,3.18368 -18.34402,5.4013 -27.941255,4.91307 -3.70871,-0.18867 -8.697556,-0.97313 -11.95137,-3.14114 -1.360267,-0.90635 -2.256755,-2.36521 -3.385132,-3.54781 -0.205441,-1.6561 -0.853138,-3.31639 -0.616325,-4.9683 0.285104,-1.98878 1.173834,-3.8725 2.136518,-5.63595 2.15669,-3.95065 5.533049,-7.41908 8.872,-10.35467 1.580108,-1.38922 3.325699,-2.57806 4.98855,-3.86709 0,0 6.570964,-2.61879 6.570964,-2.61879 v 0 c -1.70486,1.27584 -3.49276,2.44765 -5.11458,3.82751 -3.369007,2.86639 -6.596596,6.11003 -8.808025,9.99616 -0.930143,1.63453 -1.781112,3.38167 -2.106483,5.23397 -0.263213,1.49845 0.258847,3.03176 0.388271,4.54764 1.034042,1.12325 1.845889,2.5021 3.102125,3.36973 3.060936,2.11407 7.818912,2.97789 11.346512,3.20108 9.41822,0.59589 18.59318,-1.63109 27.38039,-4.81563 1.47604,-0.46161 3.06148,-0.66092 4.42813,-1.38485 5.69935,-3.01904 10.21762,-6.49208 14.60531,-11.15499 2.82084,-2.99777 5.56726,-6.56848 6.70371,-10.6346 0.39608,-1.41712 0.2336,-2.93358 0.3504,-4.40036 -0.82291,-2.8866 -0.7429,-4.38941 -3.18644,-6.37865 -4.43393,-3.60957 -13.36766,-2.2526 -18.58606,-2.15529 -6.86598,0.40254 -13.74593,0.95811 -20.62112,1.16764 -1.02481,0.0312 -6.10129,0.82131 -7.519,-1.08831 -0.31274,-0.42124 0.13185,-1.04096 0.19778,-1.56144 0.77715,-0.63041 1.51248,-1.3162 2.33145,-1.89124 1.28292,-0.9008 2.6454,-1.68262 3.96454,-2.52949 1.72019,-1.10434 3.43291,-2.2203 5.15343,-3.32413 7.30536,-4.686905 14.59387,-9.39916 21.89356,-14.094991 5.184,-3.318631 8.22973,-5.20437 13.12677,-8.548933 1.23034,-0.840293 2.41234,-1.750158 3.64619,-2.585286 1.13309,-0.766929 1.87669,-1.066155 2.87697,-1.847459 0.10424,-0.08142 0.17758,-0.196095 0.26637,-0.294145 -0.19724,-0.07687 -0.38118,-0.208563 -0.59173,-0.230619 -0.85693,-0.08977 -2.67924,0.167812 -3.3835,0.258001 -3.06604,0.392636 -6.11584,0.908918 -9.1387,1.556022 -3.64841,0.842468 -4.25029,0.934612 -7.89873,1.970834 -3.50987,0.996863 -6.93124,2.235555 -10.40733,3.335867 -0.85797,0.271579 -1.72446,0.515469 -2.58668,0.773202 -0.64976,0.01913 -2.40849,0.511366 -2.57691,-0.850529 -0.0521,-0.420894 0.33352,-0.786898 0.57806,-1.133396 0.43696,-0.619133 0.97167,-1.163143 1.45477,-1.746983 2.24464,-2.712723 1.83828,-2.22981 4.21291,-5.181507 2.73379,-3.300468 5.48477,-6.584688 8.28797,-9.826678 0.89779,-1.038326 3.614,-4.108418 4.61062,-5.327462 0.42018,-0.513956 0.80402,-1.056579 1.20604,-1.584867 0,0 7.54452,-3.193122 7.54452,-3.193122 z"
       inkscape:connector-curvature="0" />
    <path
       style="fill:#000000;stroke-width:0.26458332"
       id="path130"
       d="m 90.850036,175.7004 c -3.419922,3.84347 -5.496377,8.6078 -7.462657,13.30039 -1.435719,3.18725 -2.480054,6.59913 -4.262001,9.62607 -0.887357,1.50733 -1.390854,1.99812 -2.504056,3.32735 -1.680726,1.86253 -3.603401,3.47982 -5.348658,5.27968 -1.049772,1.08261 -0.77279,0.69363 -1.281507,1.55743 1.189082,-3.84128 -1.108498,4.40821 -4.74368,1.71412 -1.446639,-1.07213 2.869218,-2.17637 4.297243,-3.27317 3.490386,-2.68079 7.246644,-5.65527 10.798942,-8.2469 1.771394,-1.29234 3.58611,-2.52422 5.379165,-3.78634 6.055923,-4.00547 12.354575,-7.68527 18.776163,-11.06968 1.37609,-0.72525 3.40039,-1.55161 5.05939,-1.48967 0.56949,0.0213 1.097,0.30931 1.64551,0.46397 0.38929,0.47287 0.87419,0.8811 1.16788,1.41859 0.69354,1.26925 1.00141,3.19023 0.99931,4.58375 -0.008,5.13453 -2.59593,8.81179 -5.04533,13.12851 -5.45718,7.93191 -11.475054,15.68778 -18.940521,21.85843 -5.287531,4.37047 -9.65621,6.27468 -16.080343,9.90508 -5.176597,2.25029 -11.063142,4.50766 -16.480576,1.55146 -2.762406,-1.5074 -3.879466,-3.24593 -5.902975,-5.58396 -0.853395,-1.21109 -1.716763,-2.41523 -2.560185,-3.63329 -2.313327,-3.34087 -2.697904,-4.14248 -5.226484,-7.32194 -2.412783,-3.03385 -5.062064,-5.74344 -7.894929,-8.3754 -2.443085,-2.10635 -5.175075,-3.87407 -7.456519,-6.16581 -0.918816,-1.06218 -1.790102,-2.1657 -2.990207,-2.91911 -1.457679,-0.53075 -3.183827,-0.87143 -4.74505,-0.67067 -0.334954,0.0431 -0.655961,0.16097 -0.983941,0.24146 2.003558,-1.08664 3.919393,-2.35351 6.010674,-3.25992 0.453638,-0.19662 -0.719951,0.68681 -1.005379,1.09051 -1.502235,2.12473 -2.070114,4.78372 -2.617689,7.27289 -0.148135,1.13991 -0.970107,3.94708 0.435459,4.70976 0.89701,0.48674 2.25902,0.41866 3.178389,0.47042 0.870158,-0.12885 1.740315,-0.2577 2.610474,-0.38655 0,0 -6.231717,4.65397 -6.231717,4.65397 v 0 c -0.93939,0.11037 -1.878779,0.22075 -2.818169,0.33112 -1.391732,-0.14616 -2.504416,-0.0448 -3.682655,-0.89568 -1.684426,-1.2164 -0.876492,-3.79612 -0.642854,-5.4318 0.433298,-1.98079 0.865774,-3.94686 1.619356,-5.83768 0.133235,-0.33431 1.160884,-2.72927 1.627172,-3.03922 2.554371,-1.69797 5.329308,-3.03811 7.993961,-4.55716 2.059349,-0.22532 4.274777,-0.0655 6.1382,0.90575 1.190863,0.85674 2.128173,1.95982 3.078247,3.06977 2.139656,2.3405 4.679326,4.25502 7.001156,6.40437 2.758215,2.72962 5.365585,5.54194 7.769579,8.59604 2.754699,3.49964 2.692614,3.69353 5.250818,7.327 0.83853,1.19099 1.704969,2.36207 2.557454,3.5431 1.997604,2.20145 3.08587,3.83331 5.779513,5.19864 5.234837,2.65339 10.884072,0.35472 15.798737,-1.80631 -0.370213,0.2843 -1.495608,1.11689 -1.110642,0.8529 1.715834,-1.17658 3.48121,-2.29036 5.104538,-3.59162 5.59672,-4.48631 10.506842,-9.99472 14.812547,-15.70459 1.444709,-1.91586 2.746301,-3.93556 4.119451,-5.90334 2.24225,-4.08755 4.60977,-7.57741 4.59546,-12.39286 -0.004,-1.23916 -0.28018,-2.95915 -0.91834,-4.08939 -0.2204,-0.39035 -0.6026,-0.66382 -0.9039,-0.99572 -1.57938,-0.31164 -1.54976,-0.47998 -3.33831,0.0902 -0.91794,0.29266 -3.006497,2.0182 -2.665851,1.11696 0.412015,-1.09006 4.017611,-2.34433 2.951721,-1.87329 -1.868816,0.82587 -7.845991,4.71307 -9.302885,5.63579 -1.813414,1.26103 -3.652721,2.48562 -5.440243,3.78309 -2.844427,2.06463 -7.71361,5.8522 -10.489264,8.10295 -1.262888,1.02407 -2.379853,2.23959 -3.737485,3.13427 -8.540165,5.62793 -5.775987,6.46802 -10.048126,4.51548 0.112882,-0.25473 0.175138,-0.53859 0.338648,-0.76418 0.33556,-0.46298 1.90464,-1.99501 2.252866,-2.33762 1.383964,-1.36165 2.862204,-2.61554 4.198895,-4.02521 0.985906,-1.09784 1.810769,-1.928 2.612798,-3.17965 1.911522,-2.98312 2.989979,-6.4383 4.458181,-9.63579 1.915303,-4.62766 3.842827,-9.33419 6.914245,-13.33945 0,0 7.530986,-3.17834 7.530986,-3.17834 z"
       inkscape:connector-curvature="0" />
    <path
       style="fill:#000000;stroke-width:0.26458332"
       id="path132"
       d="m 80.539748,214.34751 c -0.814713,2.05605 -1.583672,4.11643 -2.634242,6.06634 -2.164937,3.26918 -4.057729,6.67944 -5.762167,10.20881 -1.52345,2.98357 -2.804896,6.06139 -3.824439,9.25006 -1.054557,4.15691 -1.626473,8.41734 -2.321787,12.64497 -0.625462,2.85286 -1.007756,5.73857 -1.359072,8.63395 -0.249052,1.74813 -0.385085,3.50845 -0.680593,5.24943 -0.209405,1.2586 -0.334664,2.52354 -0.683543,3.75388 -1.322411,3.03993 -4.870186,3.5025 -8.039801,5.0206 -0.256159,0.12269 -1.804863,-0.89511 -2.005264,-1.03296 -1.726814,-1.39329 -3.306286,-2.66657 -5.330735,-3.61132 -3.468449,-1.11612 -7.225715,-1.48545 -10.832391,-0.87598 -0.774546,0.13089 -1.531742,0.34927 -2.297612,0.5239 -0.720551,0.24029 -1.455606,0.44085 -2.161654,0.72091 -0.715531,0.28382 -3.32999,1.57485 -4.018968,1.92087 -2.060596,1.03489 -4.110436,2.08164 -6.188456,3.08192 -2.48602,1.19092 -5.004671,2.33297 -7.58505,3.30724 -0.458,0.17293 -0.904703,0.39121 -1.383715,0.49229 -0.359286,0.0758 -0.734083,0.0214 -1.101124,0.032 -0.249992,-0.32546 -0.655488,-0.577 -0.749975,-0.97639 -0.321048,-1.35697 0.53466,-3.0634 1.05558,-4.15621 1.400011,-2.93706 3.227448,-5.68894 4.940817,-8.44669 1.504579,-2.61043 3.30204,-5.05553 4.539091,-7.81426 0.516154,-1.15107 0.747035,-1.87032 1.169154,-3.05294 0.674154,-1.96812 1.102169,-4.00219 1.286407,-6.07164 0,0 7.311749,-3.6449 7.311749,-3.6449 v 0 c -0.188598,2.16012 -0.655362,4.27636 -1.357445,6.32986 -0.5662,1.6418 -1.132652,3.27896 -1.95458,4.81632 -1.178163,2.20366 -2.746618,4.16294 -3.968544,6.3408 -1.492348,2.3496 -2.072353,3.19484 -3.446951,5.637 -0.66618,1.18356 -2.557069,4.37158 -2.575938,5.88708 -0.0018,0.14137 0.182182,0.21627 0.273272,0.32438 1.34323,-0.21577 2.545689,-0.73205 3.80273,-1.25076 1.989995,-0.82122 3.957139,-1.70051 5.887353,-2.65404 4.090509,-1.99189 8.066749,-4.36274 12.480639,-5.56678 0.779082,-0.14819 1.551059,-0.34046 2.337245,-0.44458 3.755197,-0.49726 7.662346,-0.0831 11.247641,1.10522 0.432475,0.20722 0.878139,0.38891 1.297419,0.62166 1.500984,0.83323 2.729296,2.08929 4.176564,3.00385 0.467759,0.25275 0.729049,0.45423 1.259258,0.52567 0.148759,0.0201 0.575918,-0.11202 0.449199,-0.0316 -13.799354,8.76131 -7.729736,5.18001 -5.953361,3.40669 0.529956,-1.14503 0.547077,-2.41784 0.780791,-3.64238 0.324731,-1.74541 0.505418,-3.5088 0.788157,-5.26188 0.417999,-2.92149 0.694364,-5.86425 1.475115,-8.72455 0.750758,-4.2372 1.363988,-8.49748 2.231745,-12.71267 0.94311,-3.27046 2.225998,-6.39424 3.845081,-9.3934 1.670748,-3.49167 3.447767,-6.92898 5.570178,-10.17165 1.065802,-1.88266 1.911093,-3.84873 2.576086,-5.9094 0,0 7.436136,-3.45874 7.436136,-3.45874 z"
       inkscape:connector-curvature="0" />
    <path
       style="fill:#000000;stroke-width:0.26458332"
       id="path134"
       d="m 88.815134,236.50399 c -2.304114,4.68804 -3.561083,9.85155 -4.771025,14.91237 -1.164929,5.21389 -1.718585,10.54545 -1.73146,15.88329 0.113133,2.31701 0.310722,4.74374 1.776608,6.63323 0.449557,0.6581 1.060196,1.07173 1.764197,1.4092 0,0 -6.861577,4.48019 -6.861577,4.48019 v 0 c -0.755843,-0.45598 -1.451835,-0.97303 -1.937927,-1.72905 -1.464683,-2.13535 -1.732238,-4.68172 -1.765369,-7.2244 0.105132,-5.41668 0.60928,-10.83392 1.823977,-16.12335 1.201507,-5.01646 2.484194,-10.03475 4.206242,-14.8999 0,0 7.496334,-3.34158 7.496334,-3.34158 z"
       inkscape:connector-curvature="0" />
    <path
       style="fill:#000000;stroke-width:0.26458332"
       id="path136"
       d="m 107.7637,229.71003 c -1.83946,4.178 -2.29569,8.76895 -2.7836,13.258 -0.52812,5.72993 -0.63916,11.48606 -0.61751,17.23672 0.16122,2.15734 -0.18535,4.39136 0.29527,6.51729 0.16774,0.80642 0.53366,1.54688 0.91524,2.2697 0,0 -7.1118,4.07085 -7.1118,4.07085 v 0 c -0.414833,-0.78311 -0.798624,-1.59205 -0.999316,-2.46039 -0.549095,-2.22604 -0.06703,-4.55668 -0.137808,-6.82223 0.164661,-5.80281 0.305276,-11.61159 0.78658,-17.39867 0.414102,-4.41696 0.730218,-8.95672 2.203704,-13.17283 0,0 7.44924,-3.49844 7.44924,-3.49844 z"
       inkscape:connector-curvature="0" />
    <path
       style="fill:#000000;stroke-width:0.26458332"
       id="path138"
       d="m 108.03394,228.8871 c 1.86445,2.86944 3.92108,5.60806 5.98143,8.33826 1.085,1.56247 2.35434,3.00437 3.27891,4.67497 0.39096,0.70643 0.76143,1.55715 1.09579,2.29096 0.64322,1.33892 1.1969,2.71796 1.79541,4.07727 0,0 -7.06479,3.97599 -7.06479,3.97599 v 0 c -0.59492,-1.35886 -1.12426,-2.74481 -1.75613,-4.08708 -1.12115,-2.46789 -2.5369,-4.72627 -4.20074,-6.8714 -2.01972,-2.77592 -4.04461,-5.55084 -6.19168,-8.23032 0,0 7.0618,-4.16865 7.0618,-4.16865 z"
       inkscape:connector-curvature="0" />
    <path
       style="fill:#000000;stroke-width:0.26458332"
       id="path146"
       d="m 114.27615,248.18177 c 4.35439,-3.99955 7.18535,-9.36977 9.73811,-14.62524 1.96107,-4.18996 3.30965,-8.62296 4.03506,-13.18575 0.25295,-1.6936 0.26553,-3.40615 0.2467,-5.11405 -0.004,-0.23755 -0.009,-0.47509 -0.0128,-0.71263 0,0 7.27588,-3.72064 7.27588,-3.72064 v 0 c 0.003,0.23964 0.005,0.47928 0.008,0.71892 0.0173,1.77239 0.0301,3.55128 -0.29591,5.30228 -0.86246,4.6746 -2.30618,9.22378 -4.28982,13.54718 -2.4907,5.21804 -5.26575,10.4089 -9.12424,14.75965 0,0 -7.58104,3.03028 -7.58104,3.03028 z"
       inkscape:connector-curvature="0" />
    <path
       style="fill:#000000;stroke-width:0.26458332"
       id="path148"
       d="m 135.5394,209.71161 c -0.0722,2.78026 -0.0923,5.5616 -0.15432,8.34242 -0.20595,10.21379 -0.36538,20.42795 -0.41561,30.64377 0.14623,10.78782 -0.50836,21.75267 1.64322,32.40135 0.26732,1.32297 0.66587,2.61602 0.99881,3.92404 0.36417,0.73821 1.04045,3.39621 2.68729,3.20939 0.6766,-0.0768 2.41835,-1.13001 1.74003,-1.07026 -1.37371,0.12102 -3.92687,2.64297 -3.93926,1.26399 -0.0202,-2.2525 2.6982,-3.61357 3.90106,-5.51812 1.61378,-2.55522 3.02688,-5.23177 4.54032,-7.84765 1.57759,-3.28091 3.30835,-6.49248 4.73278,-9.84274 6.17539,-14.52438 10.44095,-30.59346 13.40936,-46.08591 0.52063,-2.71718 0.90235,-5.45914 1.35352,-8.18871 -0.0101,-0.64419 2.01137,-11.76222 -2.13069,-10.92486 -1.0181,0.20583 -2.86432,0.71065 -2.60138,1.71552 1.01555,3.88106 11.13258,-10.45107 -0.79238,4.04845 -3.70068,5.12977 -6.54149,10.78414 -8.72424,16.70936 -0.65297,1.77255 -1.16427,3.59413 -1.7464,5.3912 0,0 -6.51251,3.06304 -6.51251,3.06304 v 0 c 0.60263,-1.82574 1.14001,-3.67433 1.8079,-5.47723 2.19829,-5.93412 4.98084,-11.64034 8.57122,-16.86359 5.27887,-6.83554 3.46173,-5.37269 13.39223,-11.66527 0.9685,-0.6137 2.086,-1.27136 3.22928,-1.18463 4.10934,0.31172 1.59885,10.95634 1.50306,12.26922 -0.56669,2.79492 -1.08267,5.60061 -1.70007,8.38477 -1.40654,6.34289 -3.81876,15.98296 -5.5352,22.07645 -2.13882,7.59299 -4.95332,16.79815 -7.87591,24.15783 -1.31282,3.30596 -2.91802,6.48818 -4.37703,9.73227 -0.21641,0.40666 -6.15445,11.93916 -7.4374,13.15518 -2.74151,2.59853 -6.04976,4.54475 -9.2765,6.50854 -1.50527,0.91607 -2.785,0.74322 -3.73927,-0.71027 -0.54066,-0.82349 -0.72906,-1.83036 -1.09359,-2.74556 -0.28037,-1.35908 -0.61852,-2.70753 -0.84112,-4.07728 -1.75255,-10.78431 -1.1938,-21.78243 -1.37234,-32.657 -0.0498,-10.07467 -0.20792,-20.14767 -0.41561,-30.22024 -0.0623,-2.7284 -0.0817,-5.45736 -0.15432,-8.18516 0,0 7.32507,-3.73231 7.32507,-3.73231 z"
       inkscape:connector-curvature="0" />
    <path
       style="fill:#000000;stroke-width:0.26458332"
       id="path152"
       d="m 83.34721,222.08246 c 12.03902,-6.7489 6.7496,-4.76808 5.189839,-2.10673 -0.633169,1.08035 -0.945555,2.25863 -1.255795,3.45818 -0.201104,0.9992 -0.572293,2.39357 0.275439,3.23811 0.330547,0.3293 0.835211,0.43332 1.251207,0.57141 0.999403,0.14389 1.972683,0.17273 2.872372,-0.33484 0.188579,-0.10638 0.737481,-0.45367 0.548794,-0.34748 -2.166395,1.21926 -4.321744,2.45803 -6.482615,3.68705 0.714264,-0.48127 0.993034,-1.1893 1.231376,-1.97774 0,0 7.381899,-3.53585 7.381899,-3.53585 v 0 c -0.18279,0.89101 -0.368078,1.79993 -1.004713,2.49188 -2.503821,1.48374 -4.991629,2.99484 -7.511465,4.45122 -1.147514,0.66323 -2.605963,0.40364 -3.807402,0.093 -0.283651,-0.13576 -0.58707,-0.23624 -0.85096,-0.40726 -1.530014,-0.99159 -1.577213,-2.83985 -1.181899,-4.44074 1.569614,-6.6388 2.436555,-5.72165 9.842941,-9.88926 0,0 -6.499018,5.04906 -6.499018,5.04906 z"
       inkscape:connector-curvature="0" />
  </g>
</svg>
